<svg t="1626675044731" class="icon" viewBox="0 0 1024 1024" version="1.1" xmlns="http://www.w3.org/2000/svg" p-id="3718" width="200" height="200"><path d="M622.8992 512l256.192-256.192c19.2576-19.264 22.5472-47.2128 7.3472-62.4064l-55.8592-55.8592c-15.2-15.2-43.1104-11.8656-62.4064 7.3856L512.0064 401.1136 255.8208 144.9344c-19.264-19.2832-47.2128-22.592-62.4128-7.3728l-55.8592 55.8656c-15.1936 15.1744-11.904 43.1232 7.3856 62.3872l256.192 256.1856-256.192 256.2048c-19.2576 19.2512-22.592 47.1808-7.3856 62.3808l55.8592 55.8656c15.2 15.2 43.1488 11.904 62.4128-7.3536l256.1984-256.2048 256.16 256.1664c19.296 19.3024 47.2064 22.592 62.4064 7.392l55.8592-55.8656c15.1936-15.2 11.904-43.1296-7.3472-62.4064L622.8992 512 622.8992 512zM622.8992 512" p-id="3719" fill="#ffffff"></path></svg>