<svg t="1627871251718" class="icon" viewBox="0 0 1024 1024" version="1.1" xmlns="http://www.w3.org/2000/svg" p-id="2020" width="200" height="200"><path d="M677.6 232.8h-503.2c-61.6 0-112 50.4-112 112v503.2c0 61.6 50.4 112 112 112h503.2c61.6 0 112-50.4 112-112V344.8c-0.8-62.4-50.4-112-112-112z m56 614.4c0 31.2-24.8 56-56 56h-503.2c-31.2 0-56-24.8-56-56v-503.2c0-31.2 24.8-56 56-56h503.2c31.2 0 56 24.8 56 56v503.2z" p-id="2021" fill="#ffffff"></path><path d="M230.4 432h391.2v56h-391.2zM230.4 568h391.2v56h-391.2zM230.4 703.2h223.2v56h-223.2z" p-id="2022" fill="#ffffff"></path><path d="M844.8 64.8h-503.2c-61.6 0-112 50.4-112 112h56c0-31.2 24.8-56 56-56h503.2c31.2 0 56 24.8 56 56v503.2c0 31.2-24.8 56-56 56v56c61.6 0 112-50.4 112-112V176.8c0-62.4-50.4-112-112-112z" p-id="2023" fill="#ffffff"></path></svg>