<svg t="1627526676141" class="icon" viewBox="0 0 1024 1024" version="1.1" xmlns="http://www.w3.org/2000/svg" p-id="14782" width="200" height="200"><path d="M856.2688 887.04H165.9904c-49.2544 0-89.1904-39.936-89.1904-89.1904V215.9104c0-49.2544 39.936-89.1904 89.1904-89.1904h307.2512c24.1664 0 47.36 9.8304 64.1536 27.2384l65.28 67.584c16.7936 17.408 39.936 27.2384 64.1536 27.2384h189.3888c49.2544 0 89.1904 39.936 89.1904 89.1904v459.9296c0.0512 49.2032-39.8848 89.1392-89.1392 89.1392z" fill="#8C7BFD" p-id="14783"></path><path d="M256.5632 490.2912m-56.8832 0a56.8832 56.8832 0 1 0 113.7664 0 56.8832 56.8832 0 1 0-113.7664 0Z" fill="#FFE37B" p-id="14784"></path><path d="M256.5632 683.4176m-56.8832 0a56.8832 56.8832 0 1 0 113.7664 0 56.8832 56.8832 0 1 0-113.7664 0Z" fill="#FFE37B" p-id="14785"></path><path d="M766.1056 542.2592H431.7184c-28.7232 0-51.968-23.296-51.968-51.968s23.296-51.968 51.968-51.968h334.3872c28.7232 0 51.968 23.296 51.968 51.968s-23.2448 51.968-51.968 51.968zM766.1056 735.3856H431.7184c-28.7232 0-51.968-23.296-51.968-51.968 0-28.7232 23.296-51.968 51.968-51.968h334.3872c28.7232 0 51.968 23.296 51.968 51.968 0 28.7232-23.2448 51.968-51.968 51.968z" fill="#FFE37B" p-id="14786"></path></svg>