<svg t="1627610214041" class="icon" viewBox="0 0 1024 1024" version="1.1" xmlns="http://www.w3.org/2000/svg" p-id="11678" width="200" height="200"><path d="M235.46654 195.355618v249.397513H39.548923v-179.509649c0-38.589925 31.295939-69.887864 69.887863-69.887864h35.72593z" fill="#BED8FB" p-id="11679"></path><path d="M984.451077 393.055232v548.776928c0 45.389911-36.777928 82.16784-82.145839 82.16784H227.330556c-38.775924 0-71.267861-26.867948-79.901844-63.005877l-0.329999-46.975908-1.915997-279.755454V82.16784C145.184716 36.777928 181.962645 0 227.330556 0h364.065289c32.717936 0 138.681729 90.345824 232.345546 185.493638 85.465833 86.84383 160.709686 177.685653 160.709686 207.561594z" fill="#DDEAFB" p-id="11680"></path><path d="M701.39763 693.928645v184.27764c0 59.605884-48.315906 107.921789-107.921789 107.921789H158.122691a81.71984 81.71984 0 0 1-10.713979-25.135951l-0.307999-46.975908-1.915997-279.755454v-48.253906h448.293125c59.605884 0 107.919789 48.315906 107.919789 107.92179z" fill="#BED8FB" p-id="11681"></path><path d="M984.451077 393.055232v201.029608c0-0.226-0.02-0.453999-0.02-0.699999C978.249089 346.719323 777.323482 335.305345 711.61961 269.599473l112.123781-84.103835c85.463833 86.84183 160.707686 177.683653 160.707686 207.559594z" fill="#CBE2FF" p-id="11682"></path><path d="M591.385845 0H390.356238c0.226 0 0.453999 0.02 0.699998 0.02 246.665518 6.181988 258.079496 207.107595 323.785368 272.811467l84.103836-112.123781C712.101609 75.243853 621.259787 0 591.385845 0z" fill="#CBE2FF" p-id="11683"></path><path d="M984.449077 393.065232v34.753932c0-73.171857-59.335884-132.505741-132.505741-132.505741h-80.647842c-45.367911 0-82.16184-36.793928-82.16184-82.161839V132.505741C689.133654 59.333884 629.79977 0 556.627913 0h34.753932c62.579878 0 122.615761 24.865951 166.865674 69.113865l157.085693 157.085693a236.007539 236.007539 0 0 1 69.115865 166.865674z" fill="#BED8FB" p-id="11684"></path><path d="M701.41163 621.816786v184.27764c0 59.605884-48.315906 107.921789-107.921789 107.921789H147.092713l-1.915997-279.755454v-120.365765h448.313125c59.605884 0 107.921789 48.313906 107.921789 107.92179z" fill="#CBE2FF" p-id="11685"></path><path d="M771.297494 443.051135v375.383266c0 59.605884-48.315906 107.921789-107.92179 107.92179H109.448786c-2.079996 0-4.119992-0.082-6.159988-0.288-35.70593-3.089994-63.725876-33.067935-63.725875-69.599864V265.243482c0 19.285962 7.829985 36.755928 20.47996 49.407903 11.269978 11.289978 26.393948 18.749963 43.245915 20.191961 2.039996 0.206 4.079992 0.287999 6.159988 0.287999h553.926918c59.607884-0.002 107.921789 48.313906 107.92179 107.91979z" fill="#DD636E" p-id="11686"></path><path d="M142.578722 773.482489V488.005047c0-27.535946 22.321956-49.857903 49.857902-49.857903H613.519802c30.243941 0 54.759893 24.517952 54.759893 54.759893V768.578499c0 30.243941-24.517952 54.761893-54.761893 54.761893H192.436624c-27.535946 0-49.857903-22.321956-49.857902-49.857903z" fill="#617881" p-id="11687"></path><path d="M103.288798 334.841346v591.226845c-35.70593-3.089994-63.725876-33.067935-63.725875-69.599864V265.243482c0 19.285962 7.829985 36.755928 20.47996 49.407903 11.269978 11.289978 26.391948 18.747963 43.245915 20.189961z" fill="#DA4A54" p-id="11688"></path><path d="M495.912031 600.296828l-104.273796-60.203883c-23.437954-13.531974-52.735897 3.383993-52.735897 30.447941v120.405764c0 27.063947 29.297943 43.979914 52.735897 30.447941l104.273796-60.203882c23.437954-13.531974 23.437954-47.361907 0-60.893881z" fill="#DD636E" p-id="11689"></path></svg>