<svg t="1683251404629" class="icon" viewBox="0 0 1024 1024" version="1.1" xmlns="http://www.w3.org/2000/svg" p-id="1669" width="200" height="200"><path d="M512 64A448 448 0 1 0 960 512 448.5 448.5 0 0 0 512 64z m0 832a384 384 0 1 1 384-384 384.5 384.5 0 0 1-384 384z" fill="#333333" p-id="1670"></path><path d="M320 400m-48 0a48 48 0 1 0 96 0 48 48 0 1 0-96 0Z" fill="#333333" p-id="1671"></path><path d="M448 448A48 48 0 1 0 400 400a48 48 0 0 0 48 48zM576 352a48 48 0 1 0 48 48 48 48 0 0 0-48-48zM704 352a48 48 0 1 0 48 48 48 48 0 0 0-48-48z" fill="#333333" p-id="1672"></path><path d="M320 528m-48 0a48 48 0 1 0 96 0 48 48 0 1 0-96 0Z" fill="#333333" p-id="1673"></path><path d="M448 576a48 48 0 1 0-48-48 48 48 0 0 0 48 48zM576 640H448a48 48 0 0 0 0 96h128a48 48 0 1 0 0-96zM576 480a48 48 0 1 0 48 48 48 48 0 0 0-48-48zM704 480a48 48 0 1 0 48 48 48 48 0 0 0-48-48z" fill="#333333" p-id="1674"></path></svg>