<svg t="1683254527160" class="icon" viewBox="0 0 1024 1024" version="1.1" xmlns="http://www.w3.org/2000/svg" p-id="11082" width="64" height="64"><path d="M491 50c257.917 0 467 209.083 467 467 0 257.917-209.083 467-467 467-257.917 0-467-209.083-467-467C24 259.083 233.083 50 491 50z m0 59.813C266.117 109.813 83.813 292.117 83.813 517S266.117 924.187 491 924.187 898.187 741.883 898.187 517 715.883 109.813 491 109.813z m1.15 94.32c16.281 0 29.523 13.01 29.898 29.2l0.009 0.706v566.043c0 16.517-13.39 29.906-29.907 29.906-16.28 0-29.523-13.01-29.898-29.2l-0.008-0.706V234.039c0-16.516 13.39-29.906 29.906-29.906zM363.323 323.641c16.28 0 29.523 13.01 29.898 29.2l0.008 0.706v328.97c0 16.518-13.39 29.907-29.906 29.907-16.281 0-29.524-13.01-29.899-29.2l-0.008-0.706v-328.97c0-16.517 13.39-29.907 29.907-29.907z m259.955 0c16.281 0 29.524 13.01 29.899 29.2l0.008 0.706v328.97c0 16.518-13.39 29.907-29.907 29.907-16.28 0-29.523-13.01-29.898-29.2l-0.008-0.706v-328.97c0-16.517 13.39-29.907 29.906-29.907z m-388.783 77.184c16.281 0 29.523 13.01 29.898 29.2l0.008 0.707v172.536c0 16.517-13.39 29.907-29.906 29.907-16.28 0-29.523-13.01-29.898-29.2l-0.008-0.707V430.732c0-16.517 13.39-29.907 29.906-29.907z m519.911 0c16.281 0 29.524 13.01 29.899 29.2l0.008 0.707v172.536c0 16.517-13.39 29.907-29.907 29.907-16.28 0-29.523-13.01-29.898-29.2l-0.008-0.707V430.732c0-16.517 13.39-29.907 29.906-29.907z" fill="#8a8a8a" p-id="11083"></path></svg>